ISO-10303-21;
HEADER;
/* Generated by software containing ST-Developer
 * from STEP Tools, Inc. (www.steptools.com) 
 */

FILE_DESCRIPTION(
/* description */ (''),
/* implementation_level */ '2;1');

FILE_NAME(
/* name */ 'MainHatch3DPrint.step',
/* time_stamp */ '2026-07-13T09:35:23+02:00',
/* author */ (''),
/* organization */ (''),
/* preprocessor_version */ 'ST-DEVELOPER v20.1',
/* originating_system */ 'Autodesk Translation Framework v15.8.0.0',
/* authorisation */ '');

FILE_SCHEMA (('AUTOMOTIVE_DESIGN { 1 0 10303 214 3 1 1 }'));
ENDSEC;

DATA;
#10=MECHANICAL_DESIGN_GEOMETRIC_PRESENTATION_REPRESENTATION('',(#17),#817);
#11=ITEM_DEFINED_TRANSFORMATION($,$,#501,#539);
#12=(
REPRESENTATION_RELATIONSHIP($,$,#828,#827)
REPRESENTATION_RELATIONSHIP_WITH_TRANSFORMATION(#11)
SHAPE_REPRESENTATION_RELATIONSHIP()
);
#13=CONTEXT_DEPENDENT_SHAPE_REPRESENTATION(#12,#826);
#14=NEXT_ASSEMBLY_USAGE_OCCURRENCE('Hatch:1','Hatch:1','Hatch:1',#830,#831,
'Hatch:1');
#15=SHAPE_REPRESENTATION_RELATIONSHIP('SRR','None',#828,#16);
#16=ADVANCED_BREP_SHAPE_REPRESENTATION('',(#18),#816);
#17=STYLED_ITEM('',(#842),#18);
#18=MANIFOLD_SOLID_BREP('Body1',#487);
#19=FACE_BOUND('',#79,.T.);
#20=FACE_BOUND('',#90,.T.);
#21=FACE_BOUND('',#92,.T.);
#22=CIRCLE('',#511,3.50000000000001);
#23=CIRCLE('',#512,3.50000000000001);
#24=CIRCLE('',#515,3.49999999999995);
#25=CIRCLE('',#516,3.49999999999995);
#26=CIRCLE('',#519,3.5);
#27=CIRCLE('',#520,3.5);
#28=CIRCLE('',#522,3.50000000000001);
#29=CIRCLE('',#523,3.5);
#30=CIRCLE('',#524,3.49999999999999);
#31=CIRCLE('',#528,3.50000000000001);
#32=CIRCLE('',#531,3.5);
#33=CIRCLE('',#534,3.49999999999999);
#34=CYLINDRICAL_SURFACE('',#510,3.50000000000001);
#35=CYLINDRICAL_SURFACE('',#514,3.49999999999995);
#36=CYLINDRICAL_SURFACE('',#518,3.5);
#37=CYLINDRICAL_SURFACE('',#527,3.50000000000001);
#38=CYLINDRICAL_SURFACE('',#530,3.5);
#39=CYLINDRICAL_SURFACE('',#533,3.49999999999999);
#40=FACE_OUTER_BOUND('',#65,.T.);
#41=FACE_OUTER_BOUND('',#66,.T.);
#42=FACE_OUTER_BOUND('',#67,.T.);
#43=FACE_OUTER_BOUND('',#68,.T.);
#44=FACE_OUTER_BOUND('',#69,.T.);
#45=FACE_OUTER_BOUND('',#70,.T.);
#46=FACE_OUTER_BOUND('',#71,.T.);
#47=FACE_OUTER_BOUND('',#72,.T.);
#48=FACE_OUTER_BOUND('',#73,.T.);
#49=FACE_OUTER_BOUND('',#74,.T.);
#50=FACE_OUTER_BOUND('',#75,.T.);
#51=FACE_OUTER_BOUND('',#76,.T.);
#52=FACE_OUTER_BOUND('',#77,.T.);
#53=FACE_OUTER_BOUND('',#78,.T.);
#54=FACE_OUTER_BOUND('',#80,.T.);
#55=FACE_OUTER_BOUND('',#81,.T.);
#56=FACE_OUTER_BOUND('',#82,.T.);
#57=FACE_OUTER_BOUND('',#83,.T.);
#58=FACE_OUTER_BOUND('',#84,.T.);
#59=FACE_OUTER_BOUND('',#85,.T.);
#60=FACE_OUTER_BOUND('',#86,.T.);
#61=FACE_OUTER_BOUND('',#87,.T.);
#62=FACE_OUTER_BOUND('',#88,.T.);
#63=FACE_OUTER_BOUND('',#89,.T.);
#64=FACE_OUTER_BOUND('',#91,.T.);
#65=EDGE_LOOP('',(#311,#312,#313,#314));
#66=EDGE_LOOP('',(#315,#316,#317,#318));
#67=EDGE_LOOP('',(#319,#320,#321,#322));
#68=EDGE_LOOP('',(#323,#324,#325,#326));
#69=EDGE_LOOP('',(#327,#328,#329,#330));
#70=EDGE_LOOP('',(#331,#332,#333,#334));
#71=EDGE_LOOP('',(#335,#336,#337,#338));
#72=EDGE_LOOP('',(#339,#340,#341,#342));
#73=EDGE_LOOP('',(#343,#344,#345,#346));
#74=EDGE_LOOP('',(#347,#348,#349,#350));
#75=EDGE_LOOP('',(#351,#352,#353,#354));
#76=EDGE_LOOP('',(#355,#356,#357,#358));
#77=EDGE_LOOP('',(#359,#360,#361,#362));
#78=EDGE_LOOP('',(#363,#364,#365,#366,#367,#368,#369,#370,#371));
#79=EDGE_LOOP('',(#372,#373,#374,#375,#376,#377,#378,#379,#380));
#80=EDGE_LOOP('',(#381,#382,#383,#384));
#81=EDGE_LOOP('',(#385,#386,#387,#388));
#82=EDGE_LOOP('',(#389,#390,#391,#392));
#83=EDGE_LOOP('',(#393,#394,#395,#396));
#84=EDGE_LOOP('',(#397,#398,#399,#400));
#85=EDGE_LOOP('',(#401,#402,#403,#404));
#86=EDGE_LOOP('',(#405,#406,#407,#408));
#87=EDGE_LOOP('',(#409,#410,#411,#412));
#88=EDGE_LOOP('',(#413,#414,#415,#416));
#89=EDGE_LOOP('',(#417,#418,#419,#420,#421,#422,#423,#424,#425));
#90=EDGE_LOOP('',(#426,#427,#428,#429));
#91=EDGE_LOOP('',(#430,#431,#432,#433,#434,#435,#436,#437,#438));
#92=EDGE_LOOP('',(#439,#440,#441,#442));
#93=LINE('',#679,#147);
#94=LINE('',#681,#148);
#95=LINE('',#683,#149);
#96=LINE('',#684,#150);
#97=LINE('',#687,#151);
#98=LINE('',#689,#152);
#99=LINE('',#690,#153);
#100=LINE('',#693,#154);
#101=LINE('',#695,#155);
#102=LINE('',#696,#156);
#103=LINE('',#698,#157);
#104=LINE('',#699,#158);
#105=LINE('',#703,#159);
#106=LINE('',#705,#160);
#107=LINE('',#707,#161);
#108=LINE('',#708,#162);
#109=LINE('',#711,#163);
#110=LINE('',#713,#164);
#111=LINE('',#714,#165);
#112=LINE('',#717,#166);
#113=LINE('',#719,#167);
#114=LINE('',#720,#168);
#115=LINE('',#723,#169);
#116=LINE('',#725,#170);
#117=LINE('',#726,#171);
#118=LINE('',#732,#172);
#119=LINE('',#735,#173);
#120=LINE('',#737,#174);
#121=LINE('',#738,#175);
#122=LINE('',#744,#176);
#123=LINE('',#747,#177);
#124=LINE('',#749,#178);
#125=LINE('',#750,#179);
#126=LINE('',#757,#180);
#127=LINE('',#759,#181);
#128=LINE('',#761,#182);
#129=LINE('',#765,#183);
#130=LINE('',#769,#184);
#131=LINE('',#772,#185);
#132=LINE('',#775,#186);
#133=LINE('',#777,#187);
#134=LINE('',#778,#188);
#135=LINE('',#781,#189);
#136=LINE('',#782,#190);
#137=LINE('',#786,#191);
#138=LINE('',#789,#192);
#139=LINE('',#790,#193);
#140=LINE('',#794,#194);
#141=LINE('',#797,#195);
#142=LINE('',#798,#196);
#143=LINE('',#802,#197);
#144=LINE('',#805,#198);
#145=LINE('',#806,#199);
#146=LINE('',#808,#200);
#147=VECTOR('',#546,10.);
#148=VECTOR('',#547,10.);
#149=VECTOR('',#548,10.);
#150=VECTOR('',#549,10.);
#151=VECTOR('',#552,10.);
#152=VECTOR('',#553,10.);
#153=VECTOR('',#554,10.);
#154=VECTOR('',#557,10.);
#155=VECTOR('',#558,10.);
#156=VECTOR('',#559,10.);
#157=VECTOR('',#562,10.);
#158=VECTOR('',#563,10.);
#159=VECTOR('',#566,10.);
#160=VECTOR('',#567,10.);
#161=VECTOR('',#568,10.);
#162=VECTOR('',#569,10.);
#163=VECTOR('',#572,10.);
#164=VECTOR('',#573,10.);
#165=VECTOR('',#574,10.);
#166=VECTOR('',#577,10.);
#167=VECTOR('',#578,10.);
#168=VECTOR('',#579,10.);
#169=VECTOR('',#582,10.);
#170=VECTOR('',#583,10.);
#171=VECTOR('',#584,10.);
#172=VECTOR('',#591,10.);
#173=VECTOR('',#594,10.);
#174=VECTOR('',#595,10.);
#175=VECTOR('',#596,10.);
#176=VECTOR('',#603,10.);
#177=VECTOR('',#606,10.);
#178=VECTOR('',#607,10.);
#179=VECTOR('',#608,10.);
#180=VECTOR('',#617,10.);
#181=VECTOR('',#618,10.);
#182=VECTOR('',#619,10.);
#183=VECTOR('',#622,10.);
#184=VECTOR('',#625,10.);
#185=VECTOR('',#628,10.);
#186=VECTOR('',#631,10.);
#187=VECTOR('',#632,10.);
#188=VECTOR('',#633,10.);
#189=VECTOR('',#636,10.);
#190=VECTOR('',#637,10.);
#191=VECTOR('',#642,10.);
#192=VECTOR('',#645,10.);
#193=VECTOR('',#646,10.);
#194=VECTOR('',#651,10.);
#195=VECTOR('',#654,10.);
#196=VECTOR('',#655,10.);
#197=VECTOR('',#660,10.);
#198=VECTOR('',#663,10.);
#199=VECTOR('',#664,10.);
#200=VECTOR('',#667,10.);
#201=VERTEX_POINT('',#677);
#202=VERTEX_POINT('',#678);
#203=VERTEX_POINT('',#680);
#204=VERTEX_POINT('',#682);
#205=VERTEX_POINT('',#686);
#206=VERTEX_POINT('',#688);
#207=VERTEX_POINT('',#692);
#208=VERTEX_POINT('',#694);
#209=VERTEX_POINT('',#701);
#210=VERTEX_POINT('',#702);
#211=VERTEX_POINT('',#704);
#212=VERTEX_POINT('',#706);
#213=VERTEX_POINT('',#710);
#214=VERTEX_POINT('',#712);
#215=VERTEX_POINT('',#716);
#216=VERTEX_POINT('',#718);
#217=VERTEX_POINT('',#722);
#218=VERTEX_POINT('',#724);
#219=VERTEX_POINT('',#728);
#220=VERTEX_POINT('',#730);
#221=VERTEX_POINT('',#734);
#222=VERTEX_POINT('',#736);
#223=VERTEX_POINT('',#740);
#224=VERTEX_POINT('',#742);
#225=VERTEX_POINT('',#746);
#226=VERTEX_POINT('',#748);
#227=VERTEX_POINT('',#755);
#228=VERTEX_POINT('',#756);
#229=VERTEX_POINT('',#758);
#230=VERTEX_POINT('',#760);
#231=VERTEX_POINT('',#762);
#232=VERTEX_POINT('',#764);
#233=VERTEX_POINT('',#766);
#234=VERTEX_POINT('',#768);
#235=VERTEX_POINT('',#770);
#236=VERTEX_POINT('',#774);
#237=VERTEX_POINT('',#776);
#238=VERTEX_POINT('',#780);
#239=VERTEX_POINT('',#784);
#240=VERTEX_POINT('',#788);
#241=VERTEX_POINT('',#792);
#242=VERTEX_POINT('',#796);
#243=VERTEX_POINT('',#800);
#244=VERTEX_POINT('',#804);
#245=EDGE_CURVE('',#201,#202,#93,.T.);
#246=EDGE_CURVE('',#203,#201,#94,.T.);
#247=EDGE_CURVE('',#204,#203,#95,.T.);
#248=EDGE_CURVE('',#204,#202,#96,.T.);
#249=EDGE_CURVE('',#202,#205,#97,.T.);
#250=EDGE_CURVE('',#206,#204,#98,.T.);
#251=EDGE_CURVE('',#206,#205,#99,.T.);
#252=EDGE_CURVE('',#205,#207,#100,.T.);
#253=EDGE_CURVE('',#208,#206,#101,.T.);
#254=EDGE_CURVE('',#208,#207,#102,.T.);
#255=EDGE_CURVE('',#207,#201,#103,.T.);
#256=EDGE_CURVE('',#203,#208,#104,.T.);
#257=EDGE_CURVE('',#209,#210,#105,.T.);
#258=EDGE_CURVE('',#209,#211,#106,.T.);
#259=EDGE_CURVE('',#212,#211,#107,.T.);
#260=EDGE_CURVE('',#210,#212,#108,.T.);
#261=EDGE_CURVE('',#210,#213,#109,.T.);
#262=EDGE_CURVE('',#214,#212,#110,.T.);
#263=EDGE_CURVE('',#213,#214,#111,.T.);
#264=EDGE_CURVE('',#213,#215,#112,.T.);
#265=EDGE_CURVE('',#216,#214,#113,.T.);
#266=EDGE_CURVE('',#215,#216,#114,.T.);
#267=EDGE_CURVE('',#215,#217,#115,.T.);
#268=EDGE_CURVE('',#218,#216,#116,.T.);
#269=EDGE_CURVE('',#217,#218,#117,.T.);
#270=EDGE_CURVE('',#217,#219,#22,.T.);
#271=EDGE_CURVE('',#220,#218,#23,.T.);
#272=EDGE_CURVE('',#219,#220,#118,.T.);
#273=EDGE_CURVE('',#219,#221,#119,.T.);
#274=EDGE_CURVE('',#222,#220,#120,.T.);
#275=EDGE_CURVE('',#221,#222,#121,.T.);
#276=EDGE_CURVE('',#221,#223,#24,.T.);
#277=EDGE_CURVE('',#224,#222,#25,.T.);
#278=EDGE_CURVE('',#223,#224,#122,.T.);
#279=EDGE_CURVE('',#223,#225,#123,.T.);
#280=EDGE_CURVE('',#226,#224,#124,.T.);
#281=EDGE_CURVE('',#225,#226,#125,.T.);
#282=EDGE_CURVE('',#225,#209,#26,.T.);
#283=EDGE_CURVE('',#211,#226,#27,.T.);
#284=EDGE_CURVE('',#227,#228,#126,.T.);
#285=EDGE_CURVE('',#228,#229,#127,.T.);
#286=EDGE_CURVE('',#229,#230,#128,.T.);
#287=EDGE_CURVE('',#230,#231,#28,.T.);
#288=EDGE_CURVE('',#231,#232,#129,.T.);
#289=EDGE_CURVE('',#232,#233,#29,.T.);
#290=EDGE_CURVE('',#233,#234,#130,.T.);
#291=EDGE_CURVE('',#234,#235,#30,.T.);
#292=EDGE_CURVE('',#235,#227,#131,.T.);
#293=EDGE_CURVE('',#236,#228,#132,.T.);
#294=EDGE_CURVE('',#237,#236,#133,.T.);
#295=EDGE_CURVE('',#229,#237,#134,.T.);
#296=EDGE_CURVE('',#238,#237,#135,.T.);
#297=EDGE_CURVE('',#230,#238,#136,.T.);
#298=EDGE_CURVE('',#239,#238,#31,.T.);
#299=EDGE_CURVE('',#231,#239,#137,.T.);
#300=EDGE_CURVE('',#240,#239,#138,.T.);
#301=EDGE_CURVE('',#232,#240,#139,.T.);
#302=EDGE_CURVE('',#241,#240,#32,.T.);
#303=EDGE_CURVE('',#233,#241,#140,.T.);
#304=EDGE_CURVE('',#242,#241,#141,.T.);
#305=EDGE_CURVE('',#234,#242,#142,.T.);
#306=EDGE_CURVE('',#243,#242,#33,.T.);
#307=EDGE_CURVE('',#235,#243,#143,.T.);
#308=EDGE_CURVE('',#244,#243,#144,.T.);
#309=EDGE_CURVE('',#227,#244,#145,.T.);
#310=EDGE_CURVE('',#236,#244,#146,.T.);
#311=ORIENTED_EDGE('',*,*,#245,.F.);
#312=ORIENTED_EDGE('',*,*,#246,.F.);
#313=ORIENTED_EDGE('',*,*,#247,.F.);
#314=ORIENTED_EDGE('',*,*,#248,.T.);
#315=ORIENTED_EDGE('',*,*,#249,.F.);
#316=ORIENTED_EDGE('',*,*,#248,.F.);
#317=ORIENTED_EDGE('',*,*,#250,.F.);
#318=ORIENTED_EDGE('',*,*,#251,.T.);
#319=ORIENTED_EDGE('',*,*,#252,.F.);
#320=ORIENTED_EDGE('',*,*,#251,.F.);
#321=ORIENTED_EDGE('',*,*,#253,.F.);
#322=ORIENTED_EDGE('',*,*,#254,.T.);
#323=ORIENTED_EDGE('',*,*,#255,.F.);
#324=ORIENTED_EDGE('',*,*,#254,.F.);
#325=ORIENTED_EDGE('',*,*,#256,.F.);
#326=ORIENTED_EDGE('',*,*,#246,.T.);
#327=ORIENTED_EDGE('',*,*,#257,.F.);
#328=ORIENTED_EDGE('',*,*,#258,.T.);
#329=ORIENTED_EDGE('',*,*,#259,.F.);
#330=ORIENTED_EDGE('',*,*,#260,.F.);
#331=ORIENTED_EDGE('',*,*,#261,.F.);
#332=ORIENTED_EDGE('',*,*,#260,.T.);
#333=ORIENTED_EDGE('',*,*,#262,.F.);
#334=ORIENTED_EDGE('',*,*,#263,.F.);
#335=ORIENTED_EDGE('',*,*,#264,.F.);
#336=ORIENTED_EDGE('',*,*,#263,.T.);
#337=ORIENTED_EDGE('',*,*,#265,.F.);
#338=ORIENTED_EDGE('',*,*,#266,.F.);
#339=ORIENTED_EDGE('',*,*,#267,.F.);
#340=ORIENTED_EDGE('',*,*,#266,.T.);
#341=ORIENTED_EDGE('',*,*,#268,.F.);
#342=ORIENTED_EDGE('',*,*,#269,.F.);
#343=ORIENTED_EDGE('',*,*,#270,.F.);
#344=ORIENTED_EDGE('',*,*,#269,.T.);
#345=ORIENTED_EDGE('',*,*,#271,.F.);
#346=ORIENTED_EDGE('',*,*,#272,.F.);
#347=ORIENTED_EDGE('',*,*,#273,.F.);
#348=ORIENTED_EDGE('',*,*,#272,.T.);
#349=ORIENTED_EDGE('',*,*,#274,.F.);
#350=ORIENTED_EDGE('',*,*,#275,.F.);
#351=ORIENTED_EDGE('',*,*,#276,.F.);
#352=ORIENTED_EDGE('',*,*,#275,.T.);
#353=ORIENTED_EDGE('',*,*,#277,.F.);
#354=ORIENTED_EDGE('',*,*,#278,.F.);
#355=ORIENTED_EDGE('',*,*,#279,.F.);
#356=ORIENTED_EDGE('',*,*,#278,.T.);
#357=ORIENTED_EDGE('',*,*,#280,.F.);
#358=ORIENTED_EDGE('',*,*,#281,.F.);
#359=ORIENTED_EDGE('',*,*,#282,.F.);
#360=ORIENTED_EDGE('',*,*,#281,.T.);
#361=ORIENTED_EDGE('',*,*,#283,.F.);
#362=ORIENTED_EDGE('',*,*,#258,.F.);
#363=ORIENTED_EDGE('',*,*,#284,.T.);
#364=ORIENTED_EDGE('',*,*,#285,.T.);
#365=ORIENTED_EDGE('',*,*,#286,.T.);
#366=ORIENTED_EDGE('',*,*,#287,.T.);
#367=ORIENTED_EDGE('',*,*,#288,.T.);
#368=ORIENTED_EDGE('',*,*,#289,.T.);
#369=ORIENTED_EDGE('',*,*,#290,.T.);
#370=ORIENTED_EDGE('',*,*,#291,.T.);
#371=ORIENTED_EDGE('',*,*,#292,.T.);
#372=ORIENTED_EDGE('',*,*,#283,.T.);
#373=ORIENTED_EDGE('',*,*,#280,.T.);
#374=ORIENTED_EDGE('',*,*,#277,.T.);
#375=ORIENTED_EDGE('',*,*,#274,.T.);
#376=ORIENTED_EDGE('',*,*,#271,.T.);
#377=ORIENTED_EDGE('',*,*,#268,.T.);
#378=ORIENTED_EDGE('',*,*,#265,.T.);
#379=ORIENTED_EDGE('',*,*,#262,.T.);
#380=ORIENTED_EDGE('',*,*,#259,.T.);
#381=ORIENTED_EDGE('',*,*,#293,.F.);
#382=ORIENTED_EDGE('',*,*,#294,.F.);
#383=ORIENTED_EDGE('',*,*,#295,.F.);
#384=ORIENTED_EDGE('',*,*,#285,.F.);
#385=ORIENTED_EDGE('',*,*,#295,.T.);
#386=ORIENTED_EDGE('',*,*,#296,.F.);
#387=ORIENTED_EDGE('',*,*,#297,.F.);
#388=ORIENTED_EDGE('',*,*,#286,.F.);
#389=ORIENTED_EDGE('',*,*,#297,.T.);
#390=ORIENTED_EDGE('',*,*,#298,.F.);
#391=ORIENTED_EDGE('',*,*,#299,.F.);
#392=ORIENTED_EDGE('',*,*,#287,.F.);
#393=ORIENTED_EDGE('',*,*,#299,.T.);
#394=ORIENTED_EDGE('',*,*,#300,.F.);
#395=ORIENTED_EDGE('',*,*,#301,.F.);
#396=ORIENTED_EDGE('',*,*,#288,.F.);
#397=ORIENTED_EDGE('',*,*,#301,.T.);
#398=ORIENTED_EDGE('',*,*,#302,.F.);
#399=ORIENTED_EDGE('',*,*,#303,.F.);
#400=ORIENTED_EDGE('',*,*,#289,.F.);
#401=ORIENTED_EDGE('',*,*,#303,.T.);
#402=ORIENTED_EDGE('',*,*,#304,.F.);
#403=ORIENTED_EDGE('',*,*,#305,.F.);
#404=ORIENTED_EDGE('',*,*,#290,.F.);
#405=ORIENTED_EDGE('',*,*,#305,.T.);
#406=ORIENTED_EDGE('',*,*,#306,.F.);
#407=ORIENTED_EDGE('',*,*,#307,.F.);
#408=ORIENTED_EDGE('',*,*,#291,.F.);
#409=ORIENTED_EDGE('',*,*,#307,.T.);
#410=ORIENTED_EDGE('',*,*,#308,.F.);
#411=ORIENTED_EDGE('',*,*,#309,.F.);
#412=ORIENTED_EDGE('',*,*,#292,.F.);
#413=ORIENTED_EDGE('',*,*,#309,.T.);
#414=ORIENTED_EDGE('',*,*,#310,.F.);
#415=ORIENTED_EDGE('',*,*,#293,.T.);
#416=ORIENTED_EDGE('',*,*,#284,.F.);
#417=ORIENTED_EDGE('',*,*,#310,.T.);
#418=ORIENTED_EDGE('',*,*,#308,.T.);
#419=ORIENTED_EDGE('',*,*,#306,.T.);
#420=ORIENTED_EDGE('',*,*,#304,.T.);
#421=ORIENTED_EDGE('',*,*,#302,.T.);
#422=ORIENTED_EDGE('',*,*,#300,.T.);
#423=ORIENTED_EDGE('',*,*,#298,.T.);
#424=ORIENTED_EDGE('',*,*,#296,.T.);
#425=ORIENTED_EDGE('',*,*,#294,.T.);
#426=ORIENTED_EDGE('',*,*,#253,.T.);
#427=ORIENTED_EDGE('',*,*,#250,.T.);
#428=ORIENTED_EDGE('',*,*,#247,.T.);
#429=ORIENTED_EDGE('',*,*,#256,.T.);
#430=ORIENTED_EDGE('',*,*,#257,.T.);
#431=ORIENTED_EDGE('',*,*,#261,.T.);
#432=ORIENTED_EDGE('',*,*,#264,.T.);
#433=ORIENTED_EDGE('',*,*,#267,.T.);
#434=ORIENTED_EDGE('',*,*,#270,.T.);
#435=ORIENTED_EDGE('',*,*,#273,.T.);
#436=ORIENTED_EDGE('',*,*,#276,.T.);
#437=ORIENTED_EDGE('',*,*,#279,.T.);
#438=ORIENTED_EDGE('',*,*,#282,.T.);
#439=ORIENTED_EDGE('',*,*,#252,.T.);
#440=ORIENTED_EDGE('',*,*,#255,.T.);
#441=ORIENTED_EDGE('',*,*,#245,.T.);
#442=ORIENTED_EDGE('',*,*,#249,.T.);
#443=PLANE('',#502);
#444=PLANE('',#503);
#445=PLANE('',#504);
#446=PLANE('',#505);
#447=PLANE('',#506);
#448=PLANE('',#507);
#449=PLANE('',#508);
#450=PLANE('',#509);
#451=PLANE('',#513);
#452=PLANE('',#517);
#453=PLANE('',#521);
#454=PLANE('',#525);
#455=PLANE('',#526);
#456=PLANE('',#529);
#457=PLANE('',#532);
#458=PLANE('',#535);
#459=PLANE('',#536);
#460=PLANE('',#537);
#461=PLANE('',#538);
#462=ADVANCED_FACE('',(#40),#443,.F.);
#463=ADVANCED_FACE('',(#41),#444,.F.);
#464=ADVANCED_FACE('',(#42),#445,.F.);
#465=ADVANCED_FACE('',(#43),#446,.F.);
#466=ADVANCED_FACE('',(#44),#447,.T.);
#467=ADVANCED_FACE('',(#45),#448,.T.);
#468=ADVANCED_FACE('',(#46),#449,.T.);
#469=ADVANCED_FACE('',(#47),#450,.T.);
#470=ADVANCED_FACE('',(#48),#34,.F.);
#471=ADVANCED_FACE('',(#49),#451,.T.);
#472=ADVANCED_FACE('',(#50),#35,.F.);
#473=ADVANCED_FACE('',(#51),#452,.T.);
#474=ADVANCED_FACE('',(#52),#36,.F.);
#475=ADVANCED_FACE('',(#53,#19),#453,.F.);
#476=ADVANCED_FACE('',(#54),#454,.T.);
#477=ADVANCED_FACE('',(#55),#455,.T.);
#478=ADVANCED_FACE('',(#56),#37,.T.);
#479=ADVANCED_FACE('',(#57),#456,.T.);
#480=ADVANCED_FACE('',(#58),#38,.T.);
#481=ADVANCED_FACE('',(#59),#457,.T.);
#482=ADVANCED_FACE('',(#60),#39,.T.);
#483=ADVANCED_FACE('',(#61),#458,.T.);
#484=ADVANCED_FACE('',(#62),#459,.T.);
#485=ADVANCED_FACE('',(#63,#20),#460,.T.);
#486=ADVANCED_FACE('',(#64,#21),#461,.F.);
#487=CLOSED_SHELL('',(#462,#463,#464,#465,#466,#467,#468,#469,#470,#471,
#472,#473,#474,#475,#476,#477,#478,#479,#480,#481,#482,#483,#484,#485,#486));
#488=DERIVED_UNIT_ELEMENT(#490,1.);
#489=DERIVED_UNIT_ELEMENT(#819,-3.);
#490=(
MASS_UNIT()
NAMED_UNIT(*)
SI_UNIT(.KILO.,.GRAM.)
);
#491=DERIVED_UNIT((#488,#489));
#492=MEASURE_REPRESENTATION_ITEM('density measure',
POSITIVE_RATIO_MEASURE(7850.),#491);
#493=PROPERTY_DEFINITION_REPRESENTATION(#498,#495);
#494=PROPERTY_DEFINITION_REPRESENTATION(#499,#496);
#495=REPRESENTATION('material name',(#497),#816);
#496=REPRESENTATION('density',(#492),#816);
#497=DESCRIPTIVE_REPRESENTATION_ITEM('Steel','Steel');
#498=PROPERTY_DEFINITION('material property','material name',#831);
#499=PROPERTY_DEFINITION('material property','density of part',#831);
#500=AXIS2_PLACEMENT_3D('',#674,#540,#541);
#501=AXIS2_PLACEMENT_3D('',#675,#542,#543);
#502=AXIS2_PLACEMENT_3D('',#676,#544,#545);
#503=AXIS2_PLACEMENT_3D('',#685,#550,#551);
#504=AXIS2_PLACEMENT_3D('',#691,#555,#556);
#505=AXIS2_PLACEMENT_3D('',#697,#560,#561);
#506=AXIS2_PLACEMENT_3D('',#700,#564,#565);
#507=AXIS2_PLACEMENT_3D('',#709,#570,#571);
#508=AXIS2_PLACEMENT_3D('',#715,#575,#576);
#509=AXIS2_PLACEMENT_3D('',#721,#580,#581);
#510=AXIS2_PLACEMENT_3D('',#727,#585,#586);
#511=AXIS2_PLACEMENT_3D('',#729,#587,#588);
#512=AXIS2_PLACEMENT_3D('',#731,#589,#590);
#513=AXIS2_PLACEMENT_3D('',#733,#592,#593);
#514=AXIS2_PLACEMENT_3D('',#739,#597,#598);
#515=AXIS2_PLACEMENT_3D('',#741,#599,#600);
#516=AXIS2_PLACEMENT_3D('',#743,#601,#602);
#517=AXIS2_PLACEMENT_3D('',#745,#604,#605);
#518=AXIS2_PLACEMENT_3D('',#751,#609,#610);
#519=AXIS2_PLACEMENT_3D('',#752,#611,#612);
#520=AXIS2_PLACEMENT_3D('',#753,#613,#614);
#521=AXIS2_PLACEMENT_3D('',#754,#615,#616);
#522=AXIS2_PLACEMENT_3D('',#763,#620,#621);
#523=AXIS2_PLACEMENT_3D('',#767,#623,#624);
#524=AXIS2_PLACEMENT_3D('',#771,#626,#627);
#525=AXIS2_PLACEMENT_3D('',#773,#629,#630);
#526=AXIS2_PLACEMENT_3D('',#779,#634,#635);
#527=AXIS2_PLACEMENT_3D('',#783,#638,#639);
#528=AXIS2_PLACEMENT_3D('',#785,#640,#641);
#529=AXIS2_PLACEMENT_3D('',#787,#643,#644);
#530=AXIS2_PLACEMENT_3D('',#791,#647,#648);
#531=AXIS2_PLACEMENT_3D('',#793,#649,#650);
#532=AXIS2_PLACEMENT_3D('',#795,#652,#653);
#533=AXIS2_PLACEMENT_3D('',#799,#656,#657);
#534=AXIS2_PLACEMENT_3D('',#801,#658,#659);
#535=AXIS2_PLACEMENT_3D('',#803,#661,#662);
#536=AXIS2_PLACEMENT_3D('',#807,#665,#666);
#537=AXIS2_PLACEMENT_3D('',#809,#668,#669);
#538=AXIS2_PLACEMENT_3D('',#810,#670,#671);
#539=AXIS2_PLACEMENT_3D('',#811,#672,#673);
#540=DIRECTION('axis',(0.,0.,1.));
#541=DIRECTION('refdir',(1.,0.,0.));
#542=DIRECTION('axis',(0.,0.,1.));
#543=DIRECTION('refdir',(1.,0.,0.));
#544=DIRECTION('center_axis',(1.,3.41569664441751E-16,0.));
#545=DIRECTION('ref_axis',(3.41569664441751E-16,-1.,0.));
#546=DIRECTION('',(-3.41569664441751E-16,1.,0.));
#547=DIRECTION('',(0.,0.,-1.));
#548=DIRECTION('',(3.41569664441751E-16,-1.,0.));
#549=DIRECTION('',(0.,0.,-1.));
#550=DIRECTION('center_axis',(-3.41569664441751E-16,1.,0.));
#551=DIRECTION('ref_axis',(1.,3.41569664441751E-16,0.));
#552=DIRECTION('',(-1.,-3.41569664441751E-16,0.));
#553=DIRECTION('',(1.,3.41569664441751E-16,0.));
#554=DIRECTION('',(0.,0.,-1.));
#555=DIRECTION('center_axis',(-1.,-3.41569664441751E-16,0.));
#556=DIRECTION('ref_axis',(-3.41569664441751E-16,1.,0.));
#557=DIRECTION('',(3.41569664441751E-16,-1.,0.));
#558=DIRECTION('',(-3.41569664441751E-16,1.,0.));
#559=DIRECTION('',(0.,0.,-1.));
#560=DIRECTION('center_axis',(3.41569664441751E-16,-1.,0.));
#561=DIRECTION('ref_axis',(-1.,-3.41569664441751E-16,0.));
#562=DIRECTION('',(1.,3.41569664441751E-16,0.));
#563=DIRECTION('',(-1.,-3.41569664441751E-16,0.));
#564=DIRECTION('center_axis',(0.,1.,0.));
#565=DIRECTION('ref_axis',(1.,0.,0.));
#566=DIRECTION('',(-1.,0.,0.));
#567=DIRECTION('',(0.,0.,-1.));
#568=DIRECTION('',(1.,0.,0.));
#569=DIRECTION('',(0.,0.,-1.));
#570=DIRECTION('center_axis',(1.,-2.7755575615629E-16,0.));
#571=DIRECTION('ref_axis',(-2.7755575615629E-16,-1.,0.));
#572=DIRECTION('',(2.7755575615629E-16,1.,0.));
#573=DIRECTION('',(-2.7755575615629E-16,-1.,0.));
#574=DIRECTION('',(0.,0.,-1.));
#575=DIRECTION('center_axis',(0.,1.,0.));
#576=DIRECTION('ref_axis',(1.,0.,0.));
#577=DIRECTION('',(-1.,0.,0.));
#578=DIRECTION('',(1.,0.,0.));
#579=DIRECTION('',(0.,0.,-1.));
#580=DIRECTION('center_axis',(1.,2.16101805279823E-16,0.));
#581=DIRECTION('ref_axis',(2.16101805279823E-16,-1.,0.));
#582=DIRECTION('',(-2.16101805279823E-16,1.,0.));
#583=DIRECTION('',(2.16101805279823E-16,-1.,0.));
#584=DIRECTION('',(0.,0.,-1.));
#585=DIRECTION('center_axis',(0.,0.,-1.));
#586=DIRECTION('ref_axis',(-4.75809867696494E-15,1.,0.));
#587=DIRECTION('center_axis',(0.,0.,-1.));
#588=DIRECTION('ref_axis',(-4.75809867696494E-15,1.,0.));
#589=DIRECTION('center_axis',(0.,0.,1.));
#590=DIRECTION('ref_axis',(-4.75809867696494E-15,1.,0.));
#591=DIRECTION('',(0.,0.,-1.));
#592=DIRECTION('center_axis',(0.,-1.,0.));
#593=DIRECTION('ref_axis',(-1.,0.,0.));
#594=DIRECTION('',(1.,0.,0.));
#595=DIRECTION('',(-1.,0.,0.));
#596=DIRECTION('',(0.,0.,-1.));
#597=DIRECTION('center_axis',(0.,0.,-1.));
#598=DIRECTION('ref_axis',(1.,-5.73509493863517E-13,0.));
#599=DIRECTION('center_axis',(0.,0.,-1.));
#600=DIRECTION('ref_axis',(1.,-5.73509493863517E-13,0.));
#601=DIRECTION('center_axis',(0.,0.,1.));
#602=DIRECTION('ref_axis',(1.,-5.73509493863517E-13,0.));
#603=DIRECTION('',(0.,0.,-1.));
#604=DIRECTION('center_axis',(-1.,0.,0.));
#605=DIRECTION('ref_axis',(0.,1.,0.));
#606=DIRECTION('',(0.,-1.,0.));
#607=DIRECTION('',(0.,1.,0.));
#608=DIRECTION('',(0.,0.,-1.));
#609=DIRECTION('center_axis',(0.,0.,-1.));
#610=DIRECTION('ref_axis',(1.96160548122342E-12,-1.,0.));
#611=DIRECTION('center_axis',(0.,0.,-1.));
#612=DIRECTION('ref_axis',(1.96160548122342E-12,-1.,0.));
#613=DIRECTION('center_axis',(0.,0.,1.));
#614=DIRECTION('ref_axis',(1.96160548122342E-12,-1.,0.));
#615=DIRECTION('center_axis',(0.,0.,1.));
#616=DIRECTION('ref_axis',(-1.,0.,0.));
#617=DIRECTION('',(0.,1.,0.));
#618=DIRECTION('',(-1.,0.,0.));
#619=DIRECTION('',(-2.13988564837032E-16,1.,0.));
#620=DIRECTION('center_axis',(0.,0.,-1.));
#621=DIRECTION('ref_axis',(-1.26882631385732E-15,1.,0.));
#622=DIRECTION('',(1.,0.,0.));
#623=DIRECTION('center_axis',(0.,0.,-1.));
#624=DIRECTION('ref_axis',(1.,0.,0.));
#625=DIRECTION('',(0.,-1.,0.));
#626=DIRECTION('center_axis',(0.,0.,-1.));
#627=DIRECTION('ref_axis',(0.,-1.,0.));
#628=DIRECTION('',(-1.,0.,0.));
#629=DIRECTION('center_axis',(0.,-1.,0.));
#630=DIRECTION('ref_axis',(1.,0.,0.));
#631=DIRECTION('',(0.,0.,-1.));
#632=DIRECTION('',(1.,0.,0.));
#633=DIRECTION('',(0.,0.,1.));
#634=DIRECTION('center_axis',(-1.,-2.13988564837032E-16,0.));
#635=DIRECTION('ref_axis',(2.13988564837032E-16,-1.,0.));
#636=DIRECTION('',(2.13988564837032E-16,-1.,0.));
#637=DIRECTION('',(0.,0.,1.));
#638=DIRECTION('center_axis',(0.,0.,1.));
#639=DIRECTION('ref_axis',(-1.26882631385732E-15,1.,0.));
#640=DIRECTION('center_axis',(0.,0.,1.));
#641=DIRECTION('ref_axis',(-1.26882631385732E-15,1.,0.));
#642=DIRECTION('',(0.,0.,1.));
#643=DIRECTION('center_axis',(0.,1.,0.));
#644=DIRECTION('ref_axis',(-1.,0.,0.));
#645=DIRECTION('',(-1.,0.,0.));
#646=DIRECTION('',(0.,0.,1.));
#647=DIRECTION('center_axis',(0.,0.,1.));
#648=DIRECTION('ref_axis',(1.,0.,0.));
#649=DIRECTION('center_axis',(0.,0.,1.));
#650=DIRECTION('ref_axis',(1.,0.,0.));
#651=DIRECTION('',(0.,0.,1.));
#652=DIRECTION('center_axis',(1.,0.,0.));
#653=DIRECTION('ref_axis',(0.,1.,0.));
#654=DIRECTION('',(0.,1.,0.));
#655=DIRECTION('',(0.,0.,1.));
#656=DIRECTION('center_axis',(0.,0.,1.));
#657=DIRECTION('ref_axis',(0.,-1.,0.));
#658=DIRECTION('center_axis',(0.,0.,1.));
#659=DIRECTION('ref_axis',(0.,-1.,0.));
#660=DIRECTION('',(0.,0.,1.));
#661=DIRECTION('center_axis',(0.,-1.,0.));
#662=DIRECTION('ref_axis',(1.,0.,0.));
#663=DIRECTION('',(1.,0.,0.));
#664=DIRECTION('',(0.,0.,1.));
#665=DIRECTION('center_axis',(-1.,0.,0.));
#666=DIRECTION('ref_axis',(0.,-1.,0.));
#667=DIRECTION('',(0.,-1.,0.));
#668=DIRECTION('center_axis',(0.,0.,1.));
#669=DIRECTION('ref_axis',(-1.,0.,0.));
#670=DIRECTION('center_axis',(0.,0.,1.));
#671=DIRECTION('ref_axis',(-1.,0.,0.));
#672=DIRECTION('',(2.18253907065791E-18,-4.57949128095814E-18,-0.999999999999998));
#673=DIRECTION('',(0.999999999999999,7.30147723060557E-16,2.16840434497099E-18));
#674=CARTESIAN_POINT('',(0.,0.,0.));
#675=CARTESIAN_POINT('',(0.,0.,0.));
#676=CARTESIAN_POINT('Origin',(29.6526946484166,81.3375482746692,5.51));
#677=CARTESIAN_POINT('',(29.6526946484166,78.2975482746692,4.51));
#678=CARTESIAN_POINT('',(29.6526946484166,81.3375482746692,4.51));
#679=CARTESIAN_POINT('',(29.6526946484166,63.727548274669,4.51));
#680=CARTESIAN_POINT('',(29.6526946484166,78.2975482746692,5.51));
#681=CARTESIAN_POINT('',(29.6526946484166,78.2975482746692,5.51));
#682=CARTESIAN_POINT('',(29.6526946484166,81.3375482746692,5.51));
#683=CARTESIAN_POINT('',(29.6526946484166,63.727548274669,5.51));
#684=CARTESIAN_POINT('',(29.6526946484166,81.3375482746692,5.51));
#685=CARTESIAN_POINT('Origin',(18.9926946484166,81.3375482746692,5.51));
#686=CARTESIAN_POINT('',(18.9926946484166,81.3375482746692,4.51));
#687=CARTESIAN_POINT('',(29.9376946484138,81.3375482746692,4.51));
#688=CARTESIAN_POINT('',(18.9926946484166,81.3375482746692,5.51));
#689=CARTESIAN_POINT('',(29.9376946484138,81.3375482746692,5.51));
#690=CARTESIAN_POINT('',(18.9926946484166,81.3375482746692,5.51));
#691=CARTESIAN_POINT('Origin',(18.9926946484166,78.2975482746692,5.51));
#692=CARTESIAN_POINT('',(18.9926946484166,78.2975482746692,4.51));
#693=CARTESIAN_POINT('',(18.9926946484166,62.207548274669,4.51));
#694=CARTESIAN_POINT('',(18.9926946484166,78.2975482746692,5.51));
#695=CARTESIAN_POINT('',(18.9926946484166,62.207548274669,5.51));
#696=CARTESIAN_POINT('',(18.9926946484166,78.2975482746692,5.51));
#697=CARTESIAN_POINT('Origin',(29.6526946484166,78.2975482746692,5.51));
#698=CARTESIAN_POINT('',(35.2676946484138,78.2975482746692,4.51));
#699=CARTESIAN_POINT('',(35.2676946484138,78.2975482746692,5.51));
#700=CARTESIAN_POINT('Origin',(45.6326946484147,7.81754827466592,4.51));
#701=CARTESIAN_POINT('',(72.632694648416,7.81754827466592,4.51));
#702=CARTESIAN_POINT('',(45.6326946484147,7.81754827466592,4.51));
#703=CARTESIAN_POINT('',(43.2576946484128,7.81754827466592,4.51));
#704=CARTESIAN_POINT('',(72.632694648416,7.81754827466592,3.51));
#705=CARTESIAN_POINT('',(72.632694648416,7.81754827466592,4.51));
#706=CARTESIAN_POINT('',(45.6326946484147,7.81754827466592,3.51));
#707=CARTESIAN_POINT('',(72.632694648416,7.81754827466592,3.51));
#708=CARTESIAN_POINT('',(45.6326946484147,7.81754827466592,4.51));
#709=CARTESIAN_POINT('Origin',(45.6326946484147,39.8175482746658,4.51));
#710=CARTESIAN_POINT('',(45.6326946484147,39.8175482746658,4.51));
#711=CARTESIAN_POINT('',(45.6326946484147,42.9675482746673,4.51));
#712=CARTESIAN_POINT('',(45.6326946484147,39.8175482746658,3.51));
#713=CARTESIAN_POINT('',(45.6326946484147,7.81754827466592,3.51));
#714=CARTESIAN_POINT('',(45.6326946484147,39.8175482746658,4.51));
#715=CARTESIAN_POINT('Origin',(5.63269464841468,39.8175482746658,4.51));
#716=CARTESIAN_POINT('',(5.63269464841468,39.8175482746658,4.51));
#717=CARTESIAN_POINT('',(23.2576946484128,39.8175482746658,4.51));
#718=CARTESIAN_POINT('',(5.63269464841468,39.8175482746658,3.51));
#719=CARTESIAN_POINT('',(45.6326946484147,39.8175482746658,3.51));
#720=CARTESIAN_POINT('',(5.63269464841468,39.8175482746658,4.51));
#721=CARTESIAN_POINT('Origin',(5.63269464841467,80.9175482746683,4.51));
#722=CARTESIAN_POINT('',(5.63269464841467,80.9175482746683,4.51));
#723=CARTESIAN_POINT('',(5.63269464841467,63.5175482746686,4.51));
#724=CARTESIAN_POINT('',(5.63269464841468,80.9175482746683,3.51));
#725=CARTESIAN_POINT('',(5.63269464841468,39.8175482746658,3.51));
#726=CARTESIAN_POINT('',(5.63269464841467,80.9175482746683,4.51));
#727=CARTESIAN_POINT('Origin',(9.13269464841469,80.9175482746702,4.51));
#728=CARTESIAN_POINT('',(9.13269464841467,84.4175482746702,4.51));
#729=CARTESIAN_POINT('Origin',(9.13269464841469,80.9175482746702,4.51));
#730=CARTESIAN_POINT('',(9.13269464841467,84.4175482746702,3.51));
#731=CARTESIAN_POINT('Origin',(9.13269464841469,80.9175482746702,3.51));
#732=CARTESIAN_POINT('',(9.13269464841467,84.4175482746702,4.51));
#733=CARTESIAN_POINT('Origin',(72.632694648416,84.4175482746702,4.51));
#734=CARTESIAN_POINT('',(72.632694648416,84.4175482746702,4.51));
#735=CARTESIAN_POINT('',(56.7576946484135,84.4175482746702,4.51));
#736=CARTESIAN_POINT('',(72.632694648416,84.4175482746702,3.51));
#737=CARTESIAN_POINT('',(9.13269464841467,84.4175482746702,3.51));
#738=CARTESIAN_POINT('',(72.632694648416,84.4175482746702,4.51));
#739=CARTESIAN_POINT('Origin',(72.6326946484092,80.9175482746703,4.51));
#740=CARTESIAN_POINT('',(76.1326946484091,80.9175482746683,4.51));
#741=CARTESIAN_POINT('Origin',(72.6326946484092,80.9175482746703,4.51));
#742=CARTESIAN_POINT('',(76.1326946484091,80.9175482746683,3.51));
#743=CARTESIAN_POINT('Origin',(72.6326946484092,80.9175482746703,3.51));
#744=CARTESIAN_POINT('',(76.1326946484091,80.9175482746683,4.51));
#745=CARTESIAN_POINT('Origin',(76.1326946484091,11.3175482746691,4.51));
#746=CARTESIAN_POINT('',(76.1326946484091,11.3175482746691,4.51));
#747=CARTESIAN_POINT('',(76.1326946484091,28.717548274669,4.51));
#748=CARTESIAN_POINT('',(76.1326946484091,11.3175482746691,3.51));
#749=CARTESIAN_POINT('',(76.1326946484091,80.9175482746683,3.51));
#750=CARTESIAN_POINT('',(76.1326946484091,11.3175482746691,4.51));
#751=CARTESIAN_POINT('Origin',(72.6326946484091,11.3175482746659,4.51));
#752=CARTESIAN_POINT('Origin',(72.6326946484091,11.3175482746659,4.51));
#753=CARTESIAN_POINT('Origin',(72.6326946484091,11.3175482746659,3.51));
#754=CARTESIAN_POINT('Origin',(40.882694648411,46.1175482746688,3.51));
#755=CARTESIAN_POINT('',(44.1326946484147,6.31754827466845,3.51));
#756=CARTESIAN_POINT('',(44.1326946484147,38.3175482746658,3.51));
#757=CARTESIAN_POINT('',(44.1326946484147,38.3175482746658,3.51));
#758=CARTESIAN_POINT('',(4.13269464841498,38.3175482746658,3.51));
#759=CARTESIAN_POINT('',(77.6326946484069,38.3175482746658,3.51));
#760=CARTESIAN_POINT('',(4.13269464841497,82.4175482746692,3.51));
#761=CARTESIAN_POINT('',(4.13269464841498,38.3175482746658,3.51));
#762=CARTESIAN_POINT('',(7.63269464841498,85.9175482746692,3.51));
#763=CARTESIAN_POINT('Origin',(7.63269464841498,82.4175482746692,3.51));
#764=CARTESIAN_POINT('',(74.132694648407,85.9175482746692,3.51));
#765=CARTESIAN_POINT('',(7.63269464841498,85.9175482746692,3.51));
#766=CARTESIAN_POINT('',(77.6326946484069,82.4175482746692,3.51));
#767=CARTESIAN_POINT('Origin',(74.1326946484069,82.4175482746692,3.51));
#768=CARTESIAN_POINT('',(77.6326946484054,9.81754827466845,3.51));
#769=CARTESIAN_POINT('',(77.6326946484054,9.81754827466845,3.51));
#770=CARTESIAN_POINT('',(74.1326946484054,6.31754827466845,3.51));
#771=CARTESIAN_POINT('Origin',(74.1326946484054,9.81754827466844,3.51));
#772=CARTESIAN_POINT('',(44.1326946484147,6.31754827466845,3.51));
#773=CARTESIAN_POINT('Origin',(4.13269464841498,38.3175482746658,4.51));
#774=CARTESIAN_POINT('',(44.1326946484147,38.3175482746658,5.51));
#775=CARTESIAN_POINT('',(44.1326946484147,38.3175482746658,4.51));
#776=CARTESIAN_POINT('',(4.13269464841498,38.3175482746658,5.51));
#777=CARTESIAN_POINT('',(77.6326946484069,38.3175482746658,5.51));
#778=CARTESIAN_POINT('',(4.13269464841498,38.3175482746658,4.51));
#779=CARTESIAN_POINT('Origin',(4.13269464841497,82.4175482746692,4.51));
#780=CARTESIAN_POINT('',(4.13269464841497,82.4175482746692,5.51));
#781=CARTESIAN_POINT('',(4.13269464841498,38.3175482746658,5.51));
#782=CARTESIAN_POINT('',(4.13269464841497,82.4175482746692,4.51));
#783=CARTESIAN_POINT('Origin',(7.63269464841498,82.4175482746692,4.51));
#784=CARTESIAN_POINT('',(7.63269464841498,85.9175482746692,5.51));
#785=CARTESIAN_POINT('Origin',(7.63269464841498,82.4175482746692,5.51));
#786=CARTESIAN_POINT('',(7.63269464841498,85.9175482746692,4.51));
#787=CARTESIAN_POINT('Origin',(74.132694648407,85.9175482746692,4.51));
#788=CARTESIAN_POINT('',(74.132694648407,85.9175482746692,5.51));
#789=CARTESIAN_POINT('',(7.63269464841498,85.9175482746692,5.51));
#790=CARTESIAN_POINT('',(74.132694648407,85.9175482746692,4.51));
#791=CARTESIAN_POINT('Origin',(74.1326946484069,82.4175482746692,4.51));
#792=CARTESIAN_POINT('',(77.6326946484069,82.4175482746692,5.51));
#793=CARTESIAN_POINT('Origin',(74.1326946484069,82.4175482746692,5.51));
#794=CARTESIAN_POINT('',(77.6326946484069,82.4175482746692,4.51));
#795=CARTESIAN_POINT('Origin',(77.6326946484054,9.81754827466845,4.51));
#796=CARTESIAN_POINT('',(77.6326946484054,9.81754827466845,5.51));
#797=CARTESIAN_POINT('',(77.6326946484054,9.81754827466845,5.51));
#798=CARTESIAN_POINT('',(77.6326946484054,9.81754827466845,4.51));
#799=CARTESIAN_POINT('Origin',(74.1326946484054,9.81754827466844,4.51));
#800=CARTESIAN_POINT('',(74.1326946484054,6.31754827466845,5.51));
#801=CARTESIAN_POINT('Origin',(74.1326946484054,9.81754827466844,5.51));
#802=CARTESIAN_POINT('',(74.1326946484054,6.31754827466845,4.51));
#803=CARTESIAN_POINT('Origin',(44.1326946484147,6.31754827466845,4.51));
#804=CARTESIAN_POINT('',(44.1326946484147,6.31754827466845,5.51));
#805=CARTESIAN_POINT('',(44.1326946484147,6.31754827466845,5.51));
#806=CARTESIAN_POINT('',(44.1326946484147,6.31754827466845,4.51));
#807=CARTESIAN_POINT('Origin',(44.1326946484147,38.3175482746658,4.51));
#808=CARTESIAN_POINT('',(44.1326946484147,38.3175482746658,5.51));
#809=CARTESIAN_POINT('Origin',(40.882694648411,46.1175482746688,5.51));
#810=CARTESIAN_POINT('Origin',(40.882694648411,46.1175482746688,4.51));
#811=CARTESIAN_POINT('',(-3.09123184571288,87.5949765957938,5.50999999999997));
#812=UNCERTAINTY_MEASURE_WITH_UNIT(LENGTH_MEASURE(0.01),#818,
'DISTANCE_ACCURACY_VALUE',
'Maximum model space distance between geometric entities at asserted c
onnectivities');
#813=UNCERTAINTY_MEASURE_WITH_UNIT(LENGTH_MEASURE(0.01),#818,
'DISTANCE_ACCURACY_VALUE',
'Maximum model space distance between geometric entities at asserted c
onnectivities');
#814=UNCERTAINTY_MEASURE_WITH_UNIT(LENGTH_MEASURE(0.01),#818,
'DISTANCE_ACCURACY_VALUE',
'Maximum model space distance between geometric entities at asserted c
onnectivities');
#815=(
GEOMETRIC_REPRESENTATION_CONTEXT(3)
GLOBAL_UNCERTAINTY_ASSIGNED_CONTEXT((#812))
GLOBAL_UNIT_ASSIGNED_CONTEXT((#818,#820,#821))
REPRESENTATION_CONTEXT('','3D')
);
#816=(
GEOMETRIC_REPRESENTATION_CONTEXT(3)
GLOBAL_UNCERTAINTY_ASSIGNED_CONTEXT((#813))
GLOBAL_UNIT_ASSIGNED_CONTEXT((#818,#820,#821))
REPRESENTATION_CONTEXT('','3D')
);
#817=(
GEOMETRIC_REPRESENTATION_CONTEXT(3)
GLOBAL_UNCERTAINTY_ASSIGNED_CONTEXT((#814))
GLOBAL_UNIT_ASSIGNED_CONTEXT((#818,#820,#821))
REPRESENTATION_CONTEXT('','3D')
);
#818=(
LENGTH_UNIT()
NAMED_UNIT(*)
SI_UNIT(.MILLI.,.METRE.)
);
#819=(
LENGTH_UNIT()
NAMED_UNIT(*)
SI_UNIT($,.METRE.)
);
#820=(
NAMED_UNIT(*)
PLANE_ANGLE_UNIT()
SI_UNIT($,.RADIAN.)
);
#821=(
NAMED_UNIT(*)
SI_UNIT($,.STERADIAN.)
SOLID_ANGLE_UNIT()
);
#822=SHAPE_DEFINITION_REPRESENTATION(#824,#827);
#823=SHAPE_DEFINITION_REPRESENTATION(#825,#828);
#824=PRODUCT_DEFINITION_SHAPE('',$,#830);
#825=PRODUCT_DEFINITION_SHAPE('',$,#831);
#826=PRODUCT_DEFINITION_SHAPE($,$,#14);
#827=SHAPE_REPRESENTATION('',(#500,#539),#815);
#828=SHAPE_REPRESENTATION('',(#501),#816);
#829=PRODUCT_DEFINITION_CONTEXT('part definition',#837,'design');
#830=PRODUCT_DEFINITION('2026-07-05-18-45-31-500','MainAssembly',#832,#829);
#831=PRODUCT_DEFINITION('2026-07-11-17-34-42-822','Hatch',#833,#829);
#832=PRODUCT_DEFINITION_FORMATION('',$,#839);
#833=PRODUCT_DEFINITION_FORMATION('',$,#840);
#834=PRODUCT_RELATED_PRODUCT_CATEGORY('MainAssembly','MainAssembly',(#839));
#835=PRODUCT_RELATED_PRODUCT_CATEGORY('Hatch','Hatch',(#840));
#836=APPLICATION_PROTOCOL_DEFINITION('international standard',
'automotive_design',2009,#837);
#837=APPLICATION_CONTEXT(
'Core Data for Automotive Mechanical Design Process');
#838=PRODUCT_CONTEXT('part definition',#837,'mechanical');
#839=PRODUCT('2026-07-05-18-45-31-500','MainAssembly',$,(#838));
#840=PRODUCT('2026-07-11-17-34-42-822','Hatch',$,(#838));
#841=PRESENTATION_STYLE_ASSIGNMENT((#843));
#842=PRESENTATION_STYLE_ASSIGNMENT((#844));
#843=SURFACE_STYLE_USAGE(.BOTH.,#845);
#844=SURFACE_STYLE_USAGE(.BOTH.,#846);
#845=SURFACE_SIDE_STYLE('',(#847));
#846=SURFACE_SIDE_STYLE('',(#848));
#847=SURFACE_STYLE_FILL_AREA(#849);
#848=SURFACE_STYLE_FILL_AREA(#850);
#849=FILL_AREA_STYLE('Steel - Satin',(#851));
#850=FILL_AREA_STYLE('ABS (White) (1)',(#852));
#851=FILL_AREA_STYLE_COLOUR('Steel - Satin',#853);
#852=FILL_AREA_STYLE_COLOUR('ABS (White) (1)',#854);
#853=COLOUR_RGB('Steel - Satin',0.627450980392157,0.627450980392157,0.627450980392157);
#854=COLOUR_RGB('ABS (White) (1)',0.137254901960784,0.427450980392157,0.501960784313725);
ENDSEC;
END-ISO-10303-21;
