M48
; DRILL file KiCad 10.0.3 date 2026-07-13T09:48:06
; FORMAT={-:-/ absolute / metric / decimal}
; #@! TF.CreationDate,2026-07-13T09:48:06+02:00
; #@! TF.GenerationSoftware,Kicad,Pcbnew,10.0.3
; #@! TF.FileFunction,Plated,1,2,PTH
FMAT,2
METRIC
; #@! TA.AperFunction,Plated,PTH,ViaDrill
T1C0.300
; #@! TA.AperFunction,Plated,PTH,ComponentDrill
T2C0.750
; #@! TA.AperFunction,Plated,PTH,ComponentDrill
T3C0.800
; #@! TA.AperFunction,Plated,PTH,ComponentDrill
T4C1.000
; #@! TA.AperFunction,Plated,PTH,ComponentDrill
T5C1.100
; #@! TA.AperFunction,Plated,PTH,ComponentDrill
T6C1.300
; #@! TA.AperFunction,Plated,PTH,ComponentDrill
T7C1.600
%
G90
G05
T1
X136.5Y-127.25
X137.0Y-110.0
X137.877Y-128.991
X139.5Y-128.5
X142.48Y-125.98
X148.0Y-123.5
X152.0Y-131.3
X155.0Y-134.5
X157.566Y-134.434
T2
X192.5Y-128.0
X194.5Y-128.0
T3
X157.69Y-91.0
X157.69Y-95.0
X165.31Y-91.0
X165.31Y-95.0
X171.0Y-93.5
X171.0Y-96.0
X172.0Y-125.318
X172.0Y-127.818
X174.5Y-116.0
X176.19Y-140.9
X176.19Y-145.5
X176.19Y-150.05
X176.19Y-154.55
X176.19Y-159.0
X177.0Y-116.0
X183.81Y-140.9
X183.81Y-145.5
X183.81Y-150.05
X183.81Y-154.55
X183.81Y-159.0
T4
X133.02Y-104.0
X133.02Y-121.78
X135.56Y-104.0
X135.56Y-121.78
X138.1Y-104.0
X138.1Y-121.78
X140.64Y-104.0
X140.64Y-121.78
X143.18Y-104.0
X143.18Y-121.78
X143.38Y-89.5
X145.72Y-104.0
X145.72Y-121.78
X145.92Y-89.5
X148.26Y-104.0
X148.26Y-121.78
X148.46Y-89.5
X150.8Y-104.0
X150.8Y-121.78
X151.0Y-89.5
X153.34Y-104.0
X153.34Y-121.78
X153.46Y-126.0
X155.88Y-104.0
X155.88Y-121.78
X156.0Y-126.0
X158.42Y-104.0
X158.42Y-121.78
X158.54Y-126.0
X160.96Y-104.0
X160.96Y-121.78
X161.08Y-126.0
X163.5Y-104.0
X163.5Y-121.78
X163.62Y-126.0
X166.04Y-104.0
X166.04Y-121.78
X166.16Y-126.0
X168.58Y-104.0
X168.58Y-121.78
X171.12Y-104.0
X171.12Y-121.78
X173.66Y-104.0
X173.66Y-121.78
X176.2Y-104.0
X176.2Y-121.78
X178.74Y-104.0
X178.74Y-121.78
X181.28Y-104.0
X181.28Y-121.78
T5
X134.25Y-145.15
X134.25Y-149.65
X140.75Y-145.15
X140.75Y-149.65
X145.75Y-135.65
X145.75Y-140.15
X145.75Y-145.15
X145.75Y-149.65
X145.75Y-154.65
X145.75Y-159.15
X152.25Y-135.65
X152.25Y-140.15
X152.25Y-145.15
X152.25Y-149.65
X152.25Y-154.65
X152.25Y-159.15
X157.25Y-145.15
X157.25Y-149.65
X163.75Y-145.15
X163.75Y-149.65
T6
X192.0Y-101.75
X192.0Y-124.25
T7
X176.38Y-96.5
X191.62Y-96.5
M30
