%TF.GenerationSoftware,KiCad,Pcbnew,10.0.3*%
%TF.CreationDate,2026-07-13T09:47:31+02:00*%
%TF.ProjectId,PCB-MP3-Player,5043422d-4d50-4332-9d50-6c617965722e,rev?*%
%TF.SameCoordinates,Original*%
%TF.FileFunction,Soldermask,Bot*%
%TF.FilePolarity,Negative*%
%FSLAX46Y46*%
G04 Gerber Fmt 4.6, Leading zero omitted, Abs format (unit mm)*
G04 Created by KiCad (PCBNEW 10.0.3) date 2026-07-13 09:47:31*
%MOMM*%
%LPD*%
G01*
G04 APERTURE LIST*
G04 Aperture macros list*
%AMRoundRect*
0 Rectangle with rounded corners*
0 $1 Rounding radius*
0 $2 $3 $4 $5 $6 $7 $8 $9 X,Y pos of 4 corners*
0 Add a 4 corners polygon primitive as box body*
4,1,4,$2,$3,$4,$5,$6,$7,$8,$9,$2,$3,0*
0 Add four circle primitives for the rounded corners*
1,1,$1+$1,$2,$3*
1,1,$1+$1,$4,$5*
1,1,$1+$1,$6,$7*
1,1,$1+$1,$8,$9*
0 Add four rect primitives between the rounded corners*
20,1,$1+$1,$2,$3,$4,$5,0*
20,1,$1+$1,$4,$5,$6,$7,0*
20,1,$1+$1,$6,$7,$8,$9,0*
20,1,$1+$1,$8,$9,$2,$3,0*%
%AMFreePoly0*
4,1,37,0.603843,0.796157,0.639018,0.796157,0.711114,0.766294,0.766294,0.711114,0.796157,0.639018,0.796157,0.603843,0.800000,0.600000,0.800000,-0.600000,0.796157,-0.603843,0.796157,-0.639018,0.766294,-0.711114,0.711114,-0.766294,0.639018,-0.796157,0.603843,-0.796157,0.600000,-0.800000,0.000000,-0.800000,0.000000,-0.796148,-0.078414,-0.796148,-0.232228,-0.765552,-0.377117,-0.705537,
-0.507515,-0.618408,-0.618408,-0.507515,-0.705537,-0.377117,-0.765552,-0.232228,-0.796148,-0.078414,-0.796148,0.078414,-0.765552,0.232228,-0.705537,0.377117,-0.618408,0.507515,-0.507515,0.618408,-0.377117,0.705537,-0.232228,0.765552,-0.078414,0.796148,0.000000,0.796148,0.000000,0.800000,0.600000,0.800000,0.603843,0.796157,0.603843,0.796157,$1*%
%AMFreePoly1*
4,1,37,0.000000,0.796148,0.078414,0.796148,0.232228,0.765552,0.377117,0.705537,0.507515,0.618408,0.618408,0.507515,0.705537,0.377117,0.765552,0.232228,0.796148,0.078414,0.796148,-0.078414,0.765552,-0.232228,0.705537,-0.377117,0.618408,-0.507515,0.507515,-0.618408,0.377117,-0.705537,0.232228,-0.765552,0.078414,-0.796148,0.000000,-0.796148,0.000000,-0.800000,-0.600000,-0.800000,
-0.603843,-0.796157,-0.639018,-0.796157,-0.711114,-0.766294,-0.766294,-0.711114,-0.796157,-0.639018,-0.796157,-0.603843,-0.800000,-0.600000,-0.800000,0.600000,-0.796157,0.603843,-0.796157,0.639018,-0.766294,0.711114,-0.711114,0.766294,-0.639018,0.796157,-0.603843,0.796157,-0.600000,0.800000,0.000000,0.800000,0.000000,0.796148,0.000000,0.796148,$1*%
G04 Aperture macros list end*
%ADD10RoundRect,0.150000X-0.625000X0.150000X-0.625000X-0.150000X0.625000X-0.150000X0.625000X0.150000X0*%
%ADD11RoundRect,0.250000X-0.650000X0.350000X-0.650000X-0.350000X0.650000X-0.350000X0.650000X0.350000X0*%
%ADD12C,2.000000*%
%ADD13RoundRect,0.250000X-0.550000X-0.550000X0.550000X-0.550000X0.550000X0.550000X-0.550000X0.550000X0*%
%ADD14C,1.600000*%
%ADD15C,3.200000*%
%ADD16R,1.700000X1.700000*%
%ADD17C,1.700000*%
%ADD18RoundRect,0.250000X-0.550000X0.550000X-0.550000X-0.550000X0.550000X-0.550000X0.550000X0.550000X0*%
%ADD19RoundRect,0.200000X-0.600000X0.600000X-0.600000X-0.600000X0.600000X-0.600000X0.600000X0.600000X0*%
%ADD20FreePoly0,270.000000*%
%ADD21FreePoly1,270.000000*%
%ADD22RoundRect,0.250000X0.350000X0.625000X-0.350000X0.625000X-0.350000X-0.625000X0.350000X-0.625000X0*%
%ADD23O,1.200000X1.750000*%
%ADD24RoundRect,0.250000X-1.350000X-1.350000X1.350000X-1.350000X1.350000X1.350000X-1.350000X1.350000X0*%
%ADD25C,2.700000*%
%ADD26C,3.000000*%
%ADD27RoundRect,0.250000X0.550000X-0.550000X0.550000X0.550000X-0.550000X0.550000X-0.550000X-0.550000X0*%
G04 APERTURE END LIST*
D10*
%TO.C,J4*%
X133550000Y-127050000D03*
X133550000Y-128050000D03*
X133550000Y-129050000D03*
X133550000Y-130050000D03*
X133550000Y-131050000D03*
X133550000Y-132050000D03*
D11*
X137425000Y-125750000D03*
X137425000Y-133350000D03*
%TD*%
D12*
%TO.C,SW3*%
X140750000Y-149650000D03*
X134250000Y-149650000D03*
X140750000Y-145150000D03*
X134250000Y-145150000D03*
%TD*%
D13*
%TO.C,C3*%
X174500000Y-116000000D03*
D14*
X177000000Y-116000000D03*
%TD*%
D12*
%TO.C,SW2*%
X152250000Y-159150000D03*
X145750000Y-159150000D03*
X152250000Y-154650000D03*
X145750000Y-154650000D03*
%TD*%
%TO.C,SW5*%
X152250000Y-149650000D03*
X145750000Y-149650000D03*
X152250000Y-145150000D03*
X145750000Y-145150000D03*
%TD*%
%TO.C,SW1*%
X152250000Y-140150000D03*
X145750000Y-140150000D03*
X152250000Y-135650000D03*
X145750000Y-135650000D03*
%TD*%
D15*
%TO.C,REF\u002A\u002A*%
X132500000Y-157500000D03*
%TD*%
D16*
%TO.C,J3*%
X143380000Y-89500000D03*
D17*
X145920000Y-89500000D03*
X148460000Y-89500000D03*
X151000000Y-89500000D03*
%TD*%
D12*
%TO.C,SW4*%
X163750000Y-149650000D03*
X157250000Y-149650000D03*
X163750000Y-145150000D03*
X157250000Y-145150000D03*
%TD*%
D15*
%TO.C,REF\u002A\u002A*%
X195000000Y-89000000D03*
%TD*%
%TO.C,REF\u002A\u002A*%
X195000000Y-157500000D03*
%TD*%
D18*
%TO.C,C2*%
X172000000Y-125317620D03*
D14*
X172000000Y-127817620D03*
%TD*%
D15*
%TO.C,REF\u002A\u002A*%
X132500000Y-89000000D03*
%TD*%
D14*
%TO.C,R7*%
X183810000Y-150050000D03*
X176190000Y-150050000D03*
%TD*%
%TO.C,R5*%
X183810000Y-159000000D03*
X176190000Y-159000000D03*
%TD*%
%TO.C,R9*%
X183810000Y-140900000D03*
X176190000Y-140900000D03*
%TD*%
D19*
%TO.C,A1*%
X133020000Y-104000000D03*
D14*
X135560000Y-104000000D03*
D20*
X138100000Y-104000000D03*
D14*
X140640000Y-104000000D03*
X143180000Y-104000000D03*
X145720000Y-104000000D03*
X148260000Y-104000000D03*
D20*
X150800000Y-104000000D03*
D14*
X153340000Y-104000000D03*
X155880000Y-104000000D03*
X158420000Y-104000000D03*
X160960000Y-104000000D03*
D20*
X163500000Y-104000000D03*
D14*
X166040000Y-104000000D03*
X168580000Y-104000000D03*
X171120000Y-104000000D03*
X173660000Y-104000000D03*
D20*
X176200000Y-104000000D03*
D14*
X178740000Y-104000000D03*
X181280000Y-104000000D03*
X181280000Y-121780000D03*
X178740000Y-121780000D03*
D21*
X176200000Y-121780000D03*
D14*
X173660000Y-121780000D03*
X171120000Y-121780000D03*
X168580000Y-121780000D03*
X166040000Y-121780000D03*
D21*
X163500000Y-121780000D03*
D14*
X160960000Y-121780000D03*
X158420000Y-121780000D03*
X155880000Y-121780000D03*
X153340000Y-121780000D03*
D21*
X150800000Y-121780000D03*
D14*
X148260000Y-121780000D03*
X145720000Y-121780000D03*
X143180000Y-121780000D03*
X140640000Y-121780000D03*
D21*
X138100000Y-121780000D03*
D14*
X135560000Y-121780000D03*
X133020000Y-121780000D03*
%TD*%
D22*
%TO.C,J1*%
X194500000Y-128000000D03*
D23*
X192500000Y-128000000D03*
%TD*%
D14*
%TO.C,R8*%
X183810000Y-145500000D03*
X176190000Y-145500000D03*
%TD*%
%TO.C,R3*%
X157690000Y-95000000D03*
X165310000Y-95000000D03*
%TD*%
%TO.C,R4*%
X165310000Y-91000000D03*
X157690000Y-91000000D03*
%TD*%
D24*
%TO.C,D1*%
X176380000Y-96500000D03*
D15*
X191620000Y-96500000D03*
%TD*%
D16*
%TO.C,J2*%
X153460000Y-126000000D03*
D17*
X156000000Y-126000000D03*
X158540000Y-126000000D03*
X161080000Y-126000000D03*
X163620000Y-126000000D03*
X166160000Y-126000000D03*
%TD*%
D14*
%TO.C,R6*%
X183810000Y-154550000D03*
X176190000Y-154550000D03*
%TD*%
D25*
%TO.C,F2*%
X192000000Y-113000000D03*
D26*
X192000000Y-124250000D03*
X192000000Y-101750000D03*
%TD*%
D27*
%TO.C,C1*%
X171000000Y-96000000D03*
D14*
X171000000Y-93500000D03*
%TD*%
M02*
